<?xml version="1.0" standalone="no"?>
<!DOCTYPE svg PUBLIC "-//W3C//DTD SVG 20010904//EN"
 "http://www.w3.org/TR/2001/REC-SVG-20010904/DTD/svg10.dtd">
<svg version="1.0" xmlns="http://www.w3.org/2000/svg"
 width="260.000000pt" height="260.000000pt" viewBox="0 0 260.000000 260.000000"
 preserveAspectRatio="xMidYMid meet">
<metadata>
Created by potrace 1.14, written by Peter Selinger 2001-2017
</metadata>
<g transform="translate(0.000000,260.000000) scale(0.100000,-0.100000)"
fill="#000000" stroke="none">
<path d="M1256 2416 c-41 -38 -91 -139 -112 -223 -17 -74 -17 -113 1 -137 15
-20 15 -20 30 0 8 10 15 31 15 46 0 15 5 30 10 33 6 3 10 14 10 24 0 24 21 43
35 31 6 -5 73 -21 149 -36 151 -29 168 -27 150 23 -7 21 -19 29 -59 40 -64 16
-207 17 -223 1 -19 -19 -26 0 -11 30 7 15 35 60 62 100 39 59 46 76 36 88 -19
23 -55 16 -93 -20z"/>
<path d="M598 1913 c-64 -68 -118 -162 -118 -206 0 -18 -6 -13 -30 23 -17 25
-44 73 -60 106 -34 73 -45 82 -71 58 -48 -43 -2 -150 117 -271 66 -67 87 -83
111 -83 16 0 33 3 36 6 3 4 -16 32 -43 62 -49 54 -62 82 -39 82 6 0 21 12 33
27 11 15 51 62 89 104 68 78 76 96 55 117 -21 21 -43 13 -80 -25z"/>
<path d="M2050 1895 c-108 -24 -170 -58 -170 -92 0 -16 20 -16 95 2 75 18 78
18 71 0 -3 -8 -1 -28 6 -43 6 -15 14 -36 19 -47 10 -27 69 -197 69 -201 0 -10
30 -2 49 14 l22 17 -22 65 c-29 90 -45 118 -93 168 l-41 44 120 -2 c66 -2 126
-2 133 -1 22 2 9 42 -20 64 -35 26 -149 32 -238 12z"/>
<path d="M422 1068 c-7 -7 -12 -23 -12 -37 0 -46 50 -158 91 -205 l40 -45 -27
-7 c-14 -4 -68 -4 -120 0 -99 7 -109 3 -99 -37 8 -29 37 -44 103 -53 95 -12
286 35 317 79 23 33 18 40 -27 33 -128 -19 -128 -19 -128 2 0 11 -16 64 -36
118 -20 55 -38 108 -41 119 -12 43 -37 57 -61 33z"/>
<path d="M2032 1047 c-8 -9 -1 -23 26 -52 69 -74 67 -69 29 -112 -120 -130
-177 -202 -171 -216 8 -22 46 -28 71 -11 46 30 132 165 136 212 2 28 3 29 19
15 10 -8 38 -55 63 -104 25 -48 50 -91 55 -94 5 -3 19 4 31 16 25 25 20 67
-17 141 -31 60 -136 174 -185 199 -45 23 -44 22 -57 6z"/>
<path d="M1416 483 c-24 -85 -22 -84 -91 -68 -81 19 -226 45 -247 45 -13 0
-18 -8 -18 -31 0 -25 6 -32 34 -44 46 -19 181 -29 234 -17 25 6 42 6 42 1 0
-10 -34 -67 -88 -147 -35 -52 -36 -54 -17 -68 30 -22 55 -17 90 20 91 97 161
366 95 366 -13 0 -22 -16 -34 -57z"/>
</g>
</svg>
